<svg width="323" height="323" viewBox="0 0 323 323" fill="none" xmlns="http://www.w3.org/2000/svg">
<g clip-path="url(#clip0_219_3)">
<path d="M121.2 72.72V121.2H72.72V72.72H121.2ZM145.44 48.48H48.48V145.44H145.44V48.48ZM121.2 202V250.48H72.72V202H121.2ZM145.44 177.76H48.48V274.72H145.44V177.76ZM250.48 72.72V121.2H202V72.72H250.48ZM274.72 48.48H177.76V145.44H274.72V48.48ZM177.76 177.76H202V202H177.76V177.76ZM202 202H226.24V226.24H202V202ZM226.24 177.76H250.48V202H226.24V177.76ZM177.76 226.24H202V250.48H177.76V226.24ZM202 250.48H226.24V274.72H202V250.48ZM226.24 226.24H250.48V250.48H226.24V226.24ZM250.48 202H274.72V226.24H250.48V202ZM250.48 250.48H274.72V274.72H250.48V250.48ZM323.2 80.8H290.88V32.32H242.4V0H323.2V80.8ZM323.2 323.2V242.4H290.88V290.88H242.4V323.2H323.2ZM0 323.2H80.8V290.88H32.32V242.4H0V323.2ZM0 0V80.8H32.32V32.32H80.8V0H0Z" fill="white"/>
</g>
<defs>
<clipPath id="clip0_219_3">
<rect width="323" height="323" fill="white"/>
</clipPath>
</defs>
</svg>
